<?xml version="1.0" standalone="no"?>
<!DOCTYPE svg PUBLIC "-//W3C//DTD SVG 20010904//EN"
 "http://www.w3.org/TR/2001/REC-SVG-20010904/DTD/svg10.dtd">
<svg version="1.0" xmlns="http://www.w3.org/2000/svg"
 width="500.000000pt" height="500.000000pt" viewBox="0 0 500.000000 500.000000"
 preserveAspectRatio="xMidYMid meet">

<g transform="translate(0.000000,500.000000) scale(0.100000,-0.100000)"
fill="#000000" stroke="none">
<path d="M2210 4745 c-157 -20 -290 -50 -440 -101 -338 -114 -614 -286 -876
-548 -316 -317 -522 -719 -616 -1204 -20 -102 -23 -148 -23 -362 0 -269 14
-374 77 -600 139 -499 457 -942 893 -1242 404 -278 933 -424 1412 -388 544 41
1039 262 1427 640 135 131 212 224 302 360 344 525 454 1162 304 1761 -42 167
-82 273 -165 444 -336 693 -1004 1155 -1800 1245 -121 13 -366 11 -495 -5z
m1494 -732 c8 -80 46 -562 46 -580 0 -8 -14 -13 -35 -13 -32 0 -35 3 -45 43
-21 82 -62 193 -93 247 -41 72 -120 151 -188 186 l-54 29 -748 3 c-412 1 -746
-1 -744 -5 3 -5 176 -210 386 -458 209 -247 379 -450 378 -452 -2 -1 -131 1
-287 5 l-285 7 -190 226 c-230 274 -582 692 -648 771 l-49 58 1275 0 1274 0 7
-67z m-1306 -1183 l3 -35 -81 3 c-53 2 -86 -1 -96 -8 -10 -9 -14 -37 -14 -111
0 -110 5 -119 74 -119 35 0 36 1 36 40 0 33 -3 40 -20 40 -16 0 -20 7 -20 30
0 30 1 30 54 30 30 0 57 -3 59 -7 3 -5 3 -50 0 -100 l-6 -93 -98 0 c-89 0
-100 2 -126 24 l-28 24 0 135 c0 183 3 186 175 183 l85 -1 3 -35z m420 0 l3
-35 -76 3 -75 4 0 -46 0 -46 64 0 65 0 -10 -30 c-10 -28 -14 -30 -65 -30 l-54
0 0 -45 0 -45 75 0 75 0 0 -30 0 -30 -115 0 -115 0 0 169 c0 125 -3 172 -12
178 -15 9 95 20 182 19 l55 -1 3 -35z m317 -73 l60 -107 3 91 c2 58 -1 96 -9
105 -10 12 -3 14 39 14 l51 0 -2 -180 -2 -180 -37 0 c-36 0 -37 0 -100 117
l-63 117 -3 -105 c-2 -89 0 -106 15 -116 14 -11 9 -13 -35 -13 l-52 0 0 164
c0 140 -2 165 -17 177 -15 13 -12 15 23 20 21 4 46 6 54 5 8 -1 41 -49 75
-109z m575 76 l0 -33 -75 0 c-91 0 -90 1 -90 -128 0 -110 2 -112 98 -112 l67
0 0 -30 0 -30 -85 0 c-89 0 -137 15 -149 45 -3 9 -6 72 -6 139 0 174 10 185
178 182 l62 -1 0 -32z m-2736 14 c-2 -7 20 -88 50 -180 l54 -167 -44 0 c-38 0
-44 3 -44 21 0 45 -17 59 -75 59 -50 0 -55 -2 -61 -25 -4 -15 -1 -32 6 -40 11
-13 5 -15 -43 -15 l-56 0 9 28 c46 136 92 291 92 310 0 20 5 22 59 22 43 0 57
-3 53 -13z m348 -154 c-3 -150 -1 -169 14 -180 15 -11 9 -13 -39 -13 l-57 0 0
168 c0 117 -4 172 -12 180 -9 9 0 12 43 12 l54 0 -3 -167z m569 145 c0 -13 24
-94 52 -180 l52 -158 -46 0 c-41 0 -47 2 -42 19 3 10 0 28 -6 40 -10 17 -21
21 -67 21 -50 0 -55 -2 -64 -26 -7 -19 -7 -31 1 -40 9 -12 2 -14 -43 -14 l-54
0 53 163 c30 89 51 170 49 180 -4 15 4 17 55 17 54 0 59 -2 60 -22z m2076 10
c-2 -7 9 -40 26 -73 l29 -59 30 58 c16 32 27 64 24 72 -4 11 7 14 50 14 l55 0
-29 -42 c-62 -90 -92 -164 -92 -224 0 -39 5 -63 17 -76 15 -17 14 -18 -35 -18
l-52 0 0 73 c0 76 0 75 -89 230 l-32 57 51 0 c37 0 50 -4 47 -12z m-1617 -585
c-63 -65 -218 -223 -345 -351 -126 -128 -232 -237 -233 -243 -3 -7 249 -9 760
-7 747 3 764 4 825 24 88 31 144 66 198 126 52 58 70 90 131 233 l43 100 43
-3 c24 -2 46 -7 49 -10 3 -4 -6 -81 -22 -172 -15 -91 -39 -239 -53 -330 -14
-91 -33 -207 -42 -257 l-16 -93 -1301 0 -1302 0 75 78 c42 42 138 142 215 222
77 80 246 255 375 390 129 135 271 282 314 328 l80 82 160 0 160 0 -114 -117z"/>
<path d="M897 2712 c-9 -34 -17 -64 -17 -67 0 -3 16 -5 36 -5 l36 0 -7 37 c-4
21 -12 51 -19 67 l-12 29 -17 -61z"/>
<path d="M1827 2760 c-3 -8 -12 -39 -20 -67 l-15 -53 40 0 c39 0 40 0 33 32
-14 60 -33 104 -38 88z"/>
<path d="M3515 1572 c-29 -6 -41 -20 -23 -27 10 -4 13 -15 10 -35 -4 -26 0
-31 37 -46 64 -25 53 -69 -19 -76 -51 -5 -47 -32 6 -36 54 -4 92 12 104 44 15
38 2 71 -36 93 -46 28 -43 41 11 41 35 0 43 3 39 15 -4 8 -16 17 -28 19 -47
10 -82 13 -101 8z"/>
<path d="M2885 1559 c-9 -14 -7 -15 40 -26 58 -13 60 -45 6 -72 -46 -24 -46
-24 -55 -74 l-7 -38 83 3 c70 3 83 6 86 21 3 14 -4 17 -47 17 -28 0 -51 4 -51
10 0 5 19 22 43 36 50 32 57 41 57 76 0 43 -24 58 -90 58 -32 0 -62 -5 -65
-11z"/>
<path d="M3107 1552 c-9 -10 -19 -45 -23 -84 -6 -62 -5 -68 19 -92 31 -31 75
-34 107 -8 17 14 23 32 27 85 8 89 -9 117 -71 117 -28 0 -48 -6 -59 -18z m79
-48 c7 -29 -1 -93 -14 -106 -5 -5 -16 -6 -25 -2 -18 6 -23 65 -11 112 9 31 42
29 50 -4z"/>
<path d="M3287 1563 c-15 -14 -5 -22 37 -28 26 -4 47 -13 51 -22 6 -17 -21
-53 -40 -53 -24 0 -53 -35 -59 -72 l-7 -38 84 0 c88 0 99 3 90 26 -3 9 -21 14
-54 14 -27 0 -49 5 -49 10 0 6 22 24 49 40 27 17 52 38 55 46 9 24 -4 63 -24
74 -21 11 -123 14 -133 3z"/>
</g>
</svg>
